<svg width="800" height="1200" viewBox="0 0 800 1200" fill="none" xmlns="http://www.w3.org/2000/svg">
  <rect width="800" height="1200" rx="56" fill="#F5F5F7"/>
  <rect x="92" y="84" width="616" height="1032" rx="48" fill="white" stroke="#D4D4D8" stroke-width="4"/>
  <rect x="144" y="156" width="512" height="152" rx="28" fill="#111111"/>
  <rect x="176" y="200" width="160" height="24" rx="12" fill="#F5F5F7" fill-opacity="0.88"/>
  <rect x="176" y="244" width="260" height="20" rx="10" fill="#F5F5F7" fill-opacity="0.64"/>
  <circle cx="400" cy="520" r="132" fill="#007AFF" fill-opacity="0.16"/>
  <path d="M400 388V652" stroke="#007AFF" stroke-width="24" stroke-linecap="round"/>
  <path d="M400 388L504 492" stroke="#007AFF" stroke-width="24" stroke-linecap="round"/>
  <rect x="146" y="744" width="508" height="276" rx="32" fill="#F5F5F7"/>
  <rect x="182" y="792" width="196" height="24" rx="12" fill="#1D1D1F" fill-opacity="0.8"/>
  <rect x="182" y="836" width="272" height="20" rx="10" fill="#6E6E73"/>
  <rect x="182" y="892" width="344" height="20" rx="10" fill="#D4D4D8"/>
  <rect x="182" y="928" width="228" height="20" rx="10" fill="#D4D4D8"/>
</svg>
